  0
SECTION
  2
HEADER
  9
$ACADVER
  1
AC1014
  9
$ACADMAINTVER
 70
     0
  9
$DWGCODEPAGE
  3
ANSI_1252
  9
$INSBASE
 10
0.0
 20
0.0
 30
0.0
  9
$EXTMIN
 10
0.0
 20
0.0
 30
0.0
  9
$EXTMAX
 10
48.0
 20
36.0
 30
0.0
  9
$LIMMIN
 10
0.0
 20
0.0
  9
$LIMMAX
 10
12.0
 20
9.0
  9
$ORTHOMODE
 70
     0
  9
$REGENMODE
 70
     1
  9
$FILLMODE
 70
     0
  9
$QTEXTMODE
 70
     0
  9
$MIRRTEXT
 70
     1
  9
$DRAGMODE
 70
     2
  9
$LTSCALE
 40
1.0
  9
$OSMODE
 70
    37
  9
$ATTMODE
 70
     1
  9
$TEXTSIZE
 40
0.2
  9
$TRACEWID
 40
0.05
  9
$TEXTSTYLE
  7
STANDARD
  9
$CLAYER
  8
0
  9
$CELTYPE
  6
BYLAYER
  9
$CECOLOR
 62
   256
  9
$CELTSCALE
 40
1.0
  9
$DELOBJ
 70
     1
  9
$DISPSILH
 70
     0
  9
$DIMSCALE
 40
1.0
  9
$DIMASZ
 40
0.18
  9
$DIMEXO
 40
0.0625
  9
$DIMDLI
 40
0.38
  9
$DIMRND
 40
0.0
  9
$DIMDLE
 40
0.0
  9
$DIMEXE
 40
0.18
  9
$DIMTP
 40
0.0
  9
$DIMTM
 40
0.0
  9
$DIMTXT
 40
0.18
  9
$DIMCEN
 40
0.09
  9
$DIMTSZ
 40
0.0
  9
$DIMTOL
 70
     0
  9
$DIMLIM
 70
     0
  9
$DIMTIH
 70
     0
  9
$DIMTOH
 70
     0
  9
$DIMSE1
 70
     0
  9
$DIMSE2
 70
     0
  9
$DIMTAD
 70
     1
  9
$DIMZIN
 70
     0
  9
$DIMBLK
  1

  9
$DIMASO
 70
     1
  9
$DIMSHO
 70
     1
  9
$DIMPOST
  1

  9
$DIMAPOST
  1

  9
$DIMALT
 70
     0
  9
$DIMALTD
 70
     2
  9
$DIMALTF
 40
25.4
  9
$DIMLFAC
 40
1.0
  9
$DIMTOFL
 70
     0
  9
$DIMTVP
 40
0.0
  9
$DIMTIX
 70
     0
  9
$DIMSOXD
 70
     0
  9
$DIMSAH
 70
     0
  9
$DIMBLK1
  1

  9
$DIMBLK2
  1

  9
$DIMSTYLE
  2
STANDARD
  9
$DIMCLRD
 70
     0
  9
$DIMCLRE
 70
     0
  9
$DIMCLRT
 70
     0
  9
$DIMTFAC
 40
1.0
  9
$DIMGAP
 40
0.09
  9
$DIMJUST
 70
     0
  9
$DIMSD1
 70
     0
  9
$DIMSD2
 70
     0
  9
$DIMTOLJ
 70
     1
  9
$DIMTZIN
 70
     0
  9
$DIMALTZ
 70
     0
  9
$DIMALTTZ
 70
     0
  9
$DIMFIT
 70
     5
  9
$DIMUPT
 70
     0
  9
$DIMUNIT
 70
     2
  9
$DIMDEC
 70
     2
  9
$DIMTDEC
 70
     4
  9
$DIMALTU
 70
     2
  9
$DIMALTTD
 70
     2
  9
$DIMTXSTY
  7
STANDARD
  9
$DIMAUNIT
 70
     0
  9
$LUNITS
 70
     2
  9
$LUPREC
 70
     4
  9
$SKETCHINC
 40
0.1
  9
$FILLETRAD
 40
0.5
  9
$AUNITS
 70
     0
  9
$AUPREC
 70
     0
  9
$MENU
  1
.
  9
$ELEVATION
 40
0.0
  9
$PELEVATION
 40
0.0
  9
$THICKNESS
 40
0.0
  9
$LIMCHECK
 70
     0
  9
$BLIPMODE
 70
     0
  9
$CHAMFERA
 40
0.5
  9
$CHAMFERB
 40
0.5
  9
$CHAMFERC
 40
1.0
  9
$CHAMFERD
 40
0.0
  9
$SKPOLY
 70
     0
  9
$TDCREATE
 40
2450772.666465926
  9
$TDUPDATE
 40
2458988.592141192
  9
$TDINDWG
 40
0.0011565046
  9
$TDUSRTIMER
 40
0.0011565046
  9
$USRTIMER
 70
     1
  9
$ANGBASE
 50
0.0
  9
$ANGDIR
 70
     0
  9
$PDMODE
 70
     0
  9
$PDSIZE
 40
0.0
  9
$PLINEWID
 40
0.0
  9
$COORDS
 70
     1
  9
$SPLFRAME
 70
     0
  9
$SPLINETYPE
 70
     6
  9
$SPLINESEGS
 70
     8
  9
$ATTDIA
 70
     0
  9
$ATTREQ
 70
     1
  9
$HANDLING
 70
     1
  9
$HANDSEED
  5
A5
  9
$SURFTAB1
 70
     6
  9
$SURFTAB2
 70
     6
  9
$SURFTYPE
 70
     6
  9
$SURFU
 70
     6
  9
$SURFV
 70
     6
  9
$UCSNAME
  2

  9
$UCSORG
 10
0.0
 20
0.0
 30
0.0
  9
$UCSXDIR
 10
1.0
 20
0.0
 30
0.0
  9
$UCSYDIR
 10
0.0
 20
1.0
 30
0.0
  9
$PUCSNAME
  2

  9
$PUCSORG
 10
0.0
 20
0.0
 30
0.0
  9
$PUCSXDIR
 10
1.0
 20
0.0
 30
0.0
  9
$PUCSYDIR
 10
0.0
 20
1.0
 30
0.0
  9
$USERI1
 70
     0
  9
$USERI2
 70
     0
  9
$USERI3
 70
     0
  9
$USERI4
 70
     0
  9
$USERI5
 70
     0
  9
$USERR1
 40
0.0
  9
$USERR2
 40
0.0
  9
$USERR3
 40
0.0
  9
$USERR4
 40
0.0
  9
$USERR5
 40
0.0
  9
$WORLDVIEW
 70
     1
  9
$SHADEDGE
 70
     3
  9
$SHADEDIF
 70
    70
  9
$TILEMODE
 70
     1
  9
$MAXACTVP
 70
    48
  9
$PINSBASE
 10
0.0
 20
0.0
 30
0.0
  9
$PLIMCHECK
 70
     0
  9
$PEXTMIN
 10
0.0
 20
0.0
 30
0.0
  9
$PEXTMAX
 10
0.0
 20
0.0
 30
0.0
  9
$PLIMMIN
 10
0.0
 20
0.0
  9
$PLIMMAX
 10
12.0
 20
9.0
  9
$UNITMODE
 70
     0
  9
$VISRETAIN
 70
     1
  9
$PLINEGEN
 70
     0
  9
$PSLTSCALE
 70
     1
  9
$TREEDEPTH
 70
  3020
  9
$PICKSTYLE
 70
     1
  9
$CMLSTYLE
  2
STANDARD
  9
$CMLJUST
 70
     0
  9
$CMLSCALE
 40
1.0
  9
$PROXYGRAPHICS
 70
     1
  9
$MEASUREMENT
 70
     0
  0
ENDSEC
  0
SECTION
  2
CLASSES
  0
CLASS
  1
LWPOLYLINE
  2
AcDbPolyline
  3
AutoCAD 2000
 90
       20
280
     0
281
     1
  0
CLASS
  1
IMAGE
  2
AcDbRasterImage
  3
ISM
 90
       21
280
     0
281
     1
  0
CLASS
  1
OLE2FRAME
  2
AcDbOle2Frame
  3
AutoCAD 2000
 90
       21
280
     0
281
     1
  0
CLASS
  1
HATCH
  2
AcDbHatch
  3
AutoCAD 2000
 90
       20
280
     0
281
     1
  0
CLASS
  1
DICTIONARYVAR
  2
AcDbDictionaryVar
  3
ObjectDBX Classes
 90
       20
280
     0
281
     0
  0
CLASS
  1
RASTERVARIABLES
  2
AcDbRasterVariables
  3
ISM
 90
       21
280
     0
281
     0
  0
CLASS
  1
IMAGEDEF
  2
AcDbRasterImageDef
  3
ISM
 90
       21
280
     0
281
     0
  0
CLASS
  1
IMAGEDEF_REACTOR
  2
AcDbRasterImageDefReactor
  3
ISM
 90
       21
280
     0
281
     0
  0
CLASS
  1
IDBUFFER
  2
AcDbIdBuffer
  3
ObjectDBX Classes
 90
       20
280
     0
281
     0
  0
CLASS
  1
SPATIAL_FILTER
  2
AcDbSpatialFilter
  3
ObjectDBX Classes
 90
       20
280
     0
281
     0
  0
CLASS
  1
XRECORD
  2
AcDbXrecord
  3
AutoCAD 2000
 90
       21
280
     0
281
     0
  0
CLASS
  1
SORTENTSTABLE
  2
AcDbSortentsTable
  3
"AutoCAD"
 90
        0
280
     0
281
     0
  0
CLASS
  1
LAYER_INDEX
  2
AcDbLayerIndex
  3
"Acad"
 90
        0
280
     0
281
     0
  0
CLASS
  1
SPATIAL_INDEX
  2
AcDbSpatialIndex
  3
"Acad"
 90
        0
280
     0
281
     0
  0
CLASS
  1
OBJECT_PTR
  2
CAseDLPNTableRecord
  3
"ASE-LPNTableRecord"
 90
        1
280
     0
281
     0
  0
CLASS
  1
LAYOUT
  2
AcDbLayout
  3
"AutoCAD 2000"
 90
        1
280
     0
281
     0
  0
CLASS
  1
PLOTSETTINGS
  2
AcDbPlotsettings
  3
"AutoCAD 2000"
 90
        1
280
     0
281
     0
  0
CLASS
  1
ACDBDICTIONARYWDFLT
  2
AcDbDictionaryWithDefault
  3
"AutoCAD 2000"
 90
        1
280
     0
281
     0
  0
CLASS
  1
ACDBPLACEHOLDER
  2
AcDbPlaceholder
  3
"AutoCAD 2000"
 90
        1
280
     0
281
     0
  0
CLASS
  1
VBA_PROJECT
  2
AcDbVbaProject
  3
"AutoCAD 2000"
 90
        1
280
     0
281
     0
  0
CLASS
  1
WIPEOUT
  2
AcDbWipeout
  3
"AutoCAD 2000"
 90
        1
280
     0
281
     1
  0
CLASS
  1
WIPEOUTVARIABLES
  2
AcDbWipeoutVariables
  3
"AutoCAD 2000"
 90
        1
280
     0
281
     0
  0
CLASS
  1
RTEXT
  2
RText
  3
RText|AutoCAD Express Tool|expresstools@autodesk.com
 90
        1
280
     0
281
     1
  0
CLASS
  1
ARCALIGNEDTEXT
  2
AcDbArcAlignedText
  3
RText|AutoCAD Express Tool|expresstools@autodesk.com
 90
        1
280
     0
281
     1
  0
ENDSEC
  0
SECTION
  2
TABLES
  0
TABLE
  2
VPORT
  5
8
100
AcDbSymbolTable
 70
     1
  0
VPORT
  5
25
100
AcDbSymbolTableRecord
100
AcDbViewportTableRecord
  2
*ACTIVE
 70
     0
 10
0.0
 20
0.0
 11
1.0
 21
1.0
 12
24.0
 22
18.0
 13
0.0
 23
0.0
 14
0.5
 24
0.5
 15
0.5
 25
0.5
 16
0.0
 26
0.0
 36
1.0
 17
0.0
 27
0.0
 37
0.0
 40
36.0
 41
1.333333
 42
50.0
 43
0.0
 44
0.0
 50
0.0
 51
0.0
 71
     0
 72
   100
 73
     1
 74
     1
 75
     0
 76
     0
 77
     0
 78
     0
  0
ENDTAB
  0
TABLE
  2
LTYPE
  5
5
100
AcDbSymbolTable
 70
     3
  0
LTYPE
  5
12
100
AcDbSymbolTableRecord
100
AcDbLinetypeTableRecord
  2
BYBLOCK
 70
     0
  3

 72
    65
 73
     0
 40
0.0
  0
LTYPE
  5
13
100
AcDbSymbolTableRecord
100
AcDbLinetypeTableRecord
  2
BYLAYER
 70
     0
  3

 72
    65
 73
     0
 40
0.0
  0
LTYPE
  5
14
100
AcDbSymbolTableRecord
100
AcDbLinetypeTableRecord
  2
CONTINUOUS
 70
     0
  3
Solid line
 72
    65
 73
     0
 40
0.0
  0
ENDTAB
  0
TABLE
  2
LAYER
  5
2
100
AcDbSymbolTable
 70
     1
  0
LAYER
  5
E
100
AcDbSymbolTableRecord
100
AcDbLayerTableRecord
  2
0
 70
     0
 62
     7
  6
CONTINUOUS
  0
ENDTAB
  0
TABLE
  2
STYLE
  5
3
100
AcDbSymbolTable
 70
     1
  0
STYLE
  5
F
100
AcDbSymbolTableRecord
100
AcDbTextStyleTableRecord
  2
STANDARD
 70
     0
 40
0.0
 41
1.0
 50
0.0
 71
     0
 42
0.2
  3
txt.shx
  4

  0
ENDTAB
  0
TABLE
  2
VIEW
  5
6
100
AcDbSymbolTable
 70
     0
  0
ENDTAB
  0
TABLE
  2
UCS
  5
7
100
AcDbSymbolTable
 70
     0
  0
ENDTAB
  0
TABLE
  2
APPID
  5
9
100
AcDbSymbolTable
 70
     1
  0
APPID
  5
10
100
AcDbSymbolTableRecord
100
AcDbRegAppTableRecord
  2
ACAD
 70
     0
  0
ENDTAB
  0
TABLE
  2
DIMSTYLE
  5
A
100
AcDbSymbolTable
 70
     1
  0
DIMSTYLE
105
1D
100
AcDbSymbolTableRecord
100
AcDbDimStyleTableRecord
  2
STANDARD
 70
     0
  3

  4

  5

  6

  7

 40
1.0
 41
0.18
 42
0.0625
 43
0.38
 44
0.18
 45
0.0
 46
0.0
 47
0.0
 48
0.0
 71
     0
 72
     0
 73
     1
 74
     1
 75
     0
 76
     0
 77
     0
 78
     0
140
0.18
141
0.09
142
0.0
143
25.4
144
1.0
145
0.0
146
1.0
147
0.09
170
     0
171
     2
172
     0
173
     0
174
     0
175
     0
176
     0
177
     0
178
     0
270
     2
271
     4
272
     4
273
     2
274
     2
275
     0
280
     0
281
     0
282
     0
283
     1
284
     0
285
     0
286
     0
287
     3
288
     0
340
F
  0
ENDTAB
  0
TABLE
  2
BLOCK_RECORD
  5
1
100
AcDbSymbolTable
 70
     0
  0
BLOCK_RECORD
  5
18
100
AcDbSymbolTableRecord
100
AcDbBlockTableRecord
  2
*MODEL_SPACE
  0
BLOCK_RECORD
  5
15
100
AcDbSymbolTableRecord
100
AcDbBlockTableRecord
  2
*PAPER_SPACE
  0
ENDTAB
  0
ENDSEC
  0
SECTION
  2
BLOCKS
  0
BLOCK
  5
19
100
AcDbEntity
  8
0
100
AcDbBlockBegin
  2
*MODEL_SPACE
 70
     0
 10
0.0
 20
0.0
 30
0.0
  3
*MODEL_SPACE
  1

  0
ENDBLK
  5
1A
100
AcDbEntity
  8
0
100
AcDbBlockEnd
  0
BLOCK
  5
16
100
AcDbEntity
 67
     1
  8
0
100
AcDbBlockBegin
  2
*PAPER_SPACE
 70
     0
 10
0.0
 20
0.0
 30
0.0
  3
*PAPER_SPACE
  1

  0
ENDBLK
  5
17
100
AcDbEntity
 67
     1
  8
0
100
AcDbBlockEnd
  0
ENDSEC
  0
SECTION
  2
ENTITIES
  0
LWPOLYLINE
  5
31
102
{ACAD_REACTORS
330
47
102
}
100
AcDbEntity
  8
0
  6
CONTINUOUS
 62
     7
100
AcDbPolyline
 90
        6
 70
     1
 10
42.005208
 20
16.567249
 10
42.005208
 20
30.684896
 10
0.005208
 20
30.684896
 10
0.005208
 20
16.567249
 10
0.005208
 20
10.684896
 10
42.005208
 20
10.684896
  0
LWPOLYLINE
  5
32
102
{ACAD_REACTORS
330
47
102
}
100
AcDbEntity
  8
0
  6
CONTINUOUS
 62
     7
100
AcDbPolyline
 90
        8
 70
     1
 10
5.055208
 20
19.234896
 10
1.055208
 20
19.234896
 42
0.414214
 10
0.555208
 20
18.734896
 10
0.555208
 20
11.734896
 42
0.414214
 10
1.055208
 20
11.234896
 10
5.055208
 20
11.234896
 42
0.414214
 10
5.555208
 20
11.734896
 10
5.555208
 20
18.734896
 42
0.414214
  0
LWPOLYLINE
  5
33
102
{ACAD_REACTORS
330
47
102
}
100
AcDbEntity
  8
0
  6
CONTINUOUS
 62
     7
100
AcDbPolyline
 90
        8
 70
     1
 10
32.630208
 20
23.922396
 10
32.630208
 20
19.922396
 42
0.414214
 10
33.130208
 20
19.422396
 10
40.755208
 20
19.422396
 42
0.414214
 10
41.255208
 20
19.922396
 10
41.255208
 20
23.922396
 42
0.414214
 10
40.755208
 20
24.422396
 10
33.130208
 20
24.422396
 42
0.414214
  0
LWPOLYLINE
  5
34
102
{ACAD_REACTORS
330
47
102
}
100
AcDbEntity
  8
0
  6
CONTINUOUS
 62
     7
100
AcDbPolyline
 90
        8
 70
     1
 10
0.005208
 20
23.922396
 10
0.005208
 20
19.922396
 42
0.414214
 10
0.505208
 20
19.422396
 10
4.505208
 20
19.422396
 42
0.414214
 10
5.005208
 20
19.922396
 10
5.005208
 20
23.922396
 42
0.414214
 10
4.505208
 20
24.422396
 10
0.505208
 20
24.422396
 42
0.414214
  0
LWPOLYLINE
  5
35
102
{ACAD_REACTORS
330
47
102
}
100
AcDbEntity
  8
0
  6
CONTINUOUS
 62
     7
100
AcDbPolyline
 90
        8
 70
     1
 10
0.005208
 20
29.047396
 10
0.005208
 20
25.047396
 42
0.414214
 10
0.505208
 20
24.547396
 10
4.505208
 20
24.547396
 42
0.414214
 10
5.005208
 20
25.047396
 10
5.005208
 20
29.047396
 42
0.414214
 10
4.505208
 20
29.547396
 10
0.505208
 20
29.547396
 42
0.414214
  0
LWPOLYLINE
  5
36
102
{ACAD_REACTORS
330
47
102
}
100
AcDbEntity
  8
0
  6
CONTINUOUS
 62
     7
100
AcDbPolyline
 90
        8
 70
     1
 10
32.630208
 20
29.047396
 10
32.630208
 20
25.047396
 42
0.414214
 10
33.130208
 20
24.547396
 10
40.755208
 20
24.547396
 42
0.414214
 10
41.255208
 20
25.047396
 10
41.255208
 20
29.047396
 42
0.414214
 10
40.755208
 20
29.547396
 10
33.130208
 20
29.547396
 42
0.414214
  0
LWPOLYLINE
  5
37
102
{ACAD_REACTORS
330
47
102
}
100
AcDbEntity
  8
0
  6
CONTINUOUS
 62
     7
100
AcDbPolyline
 90
        4
 70
     1
 10
1.569413
 20
21.764916
 10
37.569413
 20
21.764916
 10
37.569413
 20
22.079876
 10
1.569413
 20
22.079876
  0
LWPOLYLINE
  5
39
102
{ACAD_REACTORS
330
38
102
}
100
AcDbEntity
  8
0
  6
CONTINUOUS
 62
     7
100
AcDbPolyline
 90
        4
 70
     1
 10
3.601799
 20
22.220208
 10
3.351799
 20
22.220208
 10
3.351799
 20
21.640208
 10
3.601799
 20
21.640208
  0
LWPOLYLINE
  5
3A
102
{ACAD_REACTORS
330
38
102
}
100
AcDbEntity
  8
0
  6
CONTINUOUS
 62
     7
100
AcDbPolyline
 90
        4
 70
     1
 10
3.351799
 20
22.383333
 10
3.265862
 20
22.383333
 10
3.265862
 20
21.461458
 10
3.351799
 20
21.461458
  0
LWPOLYLINE
  5
3C
102
{ACAD_REACTORS
330
3B
102
}
100
AcDbEntity
  8
0
  6
CONTINUOUS
 62
     7
100
AcDbPolyline
 90
        4
 70
     1
 10
35.294271
 20
21.624583
 10
35.544271
 20
21.624583
 10
35.544271
 20
22.204583
 10
35.294271
 20
22.204583
  0
LWPOLYLINE
  5
3D
102
{ACAD_REACTORS
330
3B
102
}
100
AcDbEntity
  8
0
  6
CONTINUOUS
 62
     7
100
AcDbPolyline
 90
        4
 70
     1
 10
35.544271
 20
21.461458
 10
35.630208
 20
21.461458
 10
35.630208
 20
22.383333
 10
35.544271
 20
22.383333
  0
LWPOLYLINE
  5
3F
102
{ACAD_REACTORS
330
3E
102
}
100
AcDbEntity
  8
0
  6
CONTINUOUS
 62
     7
100
AcDbPolyline
 90
        4
 70
     1
 10
36.466146
 20
22.220208
 10
36.216146
 20
22.220208
 10
36.216146
 20
21.640208
 10
36.466146
 20
21.640208
  0
LWPOLYLINE
  5
40
102
{ACAD_REACTORS
330
3E
102
}
100
AcDbEntity
  8
0
  6
CONTINUOUS
 62
     7
100
AcDbPolyline
 90
        4
 70
     1
 10
36.216146
 20
22.383333
 10
36.130208
 20
22.383333
 10
36.130208
 20
21.461458
 10
36.216146
 20
21.461458
  0
LWPOLYLINE
  5
42
102
{ACAD_REACTORS
330
41
102
}
100
AcDbEntity
  8
0
  6
CONTINUOUS
 62
     7
100
AcDbPolyline
 90
        4
 70
     1
 10
2.405421
 20
21.624583
 10
2.655421
 20
21.624583
 10
2.655421
 20
22.204583
 10
2.405421
 20
22.204583
  0
LWPOLYLINE
  5
43
102
{ACAD_REACTORS
330
41
102
}
100
AcDbEntity
  8
0
  6
CONTINUOUS
 62
     7
100
AcDbPolyline
 90
        4
 70
     1
 10
2.655421
 20
21.461458
 10
2.741359
 20
21.461458
 10
2.741359
 20
22.383333
 10
2.655421
 20
22.383333
  0
LWPOLYLINE
  5
44
102
{ACAD_REACTORS
330
47
102
}
100
AcDbEntity
  8
0
  6
CONTINUOUS
 62
     7
100
AcDbPolyline
 90
        4
 70
     1
 10
0.941004
 20
6.639916
 10
36.941004
 20
6.639916
 10
36.941004
 20
6.954876
 10
0.941004
 20
6.954876
  0
LWPOLYLINE
  5
46
102
{ACAD_REACTORS
330
47
102
}
100
AcDbEntity
  8
0
  6
CONTINUOUS
 62
     7
100
AcDbPolyline
 90
        4
 70
     1
 10
7.501799
 20
9.047396
 10
7.501799
 20
4.547396
 10
30.001799
 20
4.547396
 10
30.001799
 20
9.047396
  0
HATCH
  5
47
102
{ACAD_REACTORS
330
45
102
}
100
AcDbEntity
  8
0
 62
    31
100
AcDbHatch
 10
0.0
 20
0.0
 30
0.0
210
0.0
220
0.0
230
1.0
  2
SOLID
 70
     1
 71
     1
 91
        1
 92
        3
 72
     0
 73
     1
 93
        4
 10
7.5017992424242514
 20
9.0473958333332813
 10
7.5017992424242514
 20
4.5473958333332813
 10
30.0017992424242514
 20
4.5473958333332813
 10
30.0017992424242514
 20
9.0473958333332813
 97
       17
330
31
330
32
330
33
330
34
330
35
330
36
330
37
330
39
330
3A
330
3C
330
3D
330
3F
330
40
330
42
330
43
330
44
330
46
 75
     0
 76
     1
 98
        0
  0
LWPOLYLINE
  5
48
102
{ACAD_REACTORS
330
45
102
}
100
AcDbEntity
  8
0
  6
CONTINUOUS
 62
     7
100
AcDbPolyline
 90
        4
 70
     1
 10
30.001799
 20
9.047396
 10
30.001799
 20
4.547396
 10
33.001799
 20
4.547396
 10
33.001799
 20
9.047396
  0
LWPOLYLINE
  5
49
102
{ACAD_REACTORS
330
45
102
}
100
AcDbEntity
  8
0
  6
CONTINUOUS
 62
     7
100
AcDbPolyline
 90
        4
 70
     1
 10
4.501799
 20
9.047396
 10
4.501799
 20
4.547396
 10
7.501799
 20
4.547396
 10
7.501799
 20
9.047396
  0
LWPOLYLINE
  5
4A
102
{ACAD_REACTORS
330
68
102
}
100
AcDbEntity
  8
0
  6
CONTINUOUS
 62
     7
100
AcDbPolyline
 90
        4
 70
     1
 10
2.126799
 20
1.547396
 10
2.626799
 20
1.547396
 10
2.626799
 20
7.847396
 10
2.126799
 20
7.847396
  0
LWPOLYLINE
  5
4B
102
{ACAD_REACTORS
330
68
102
}
100
AcDbEntity
  8
0
  6
CONTINUOUS
 62
     7
100
AcDbPolyline
 90
        4
 70
     1
 10
35.001799
 20
1.547396
 10
35.501799
 20
1.547396
 10
35.501799
 20
7.847396
 10
35.001799
 20
7.847396
  0
LWPOLYLINE
  5
4D
102
{ACAD_REACTORS
330
4C
102
}
100
AcDbEntity
  8
0
  6
CONTINUOUS
 62
     7
100
AcDbPolyline
 90
        4
 70
     1
 10
33.255489
 20
4.297396
 10
33.255489
 20
9.297396
 10
31.255489
 20
9.297396
 10
31.255489
 20
4.297396
  0
LINE
  5
4E
102
{ACAD_REACTORS
330
4C
102
}
100
AcDbEntity
  8
0
  6
CONTINUOUS
 62
     7
100
AcDbLine
 10
33.255489
 20
9.297396
 30
0.0
 11
33.255489
 21
4.297396
 31
0.0
  0
SPLINE
  5
4F
102
{ACAD_REACTORS
330
4C
102
}
100
AcDbEntity
  8
0
  6
CONTINUOUS
 62
     7
100
AcDbSpline
210
0.0
220
0.0
230
1.0
 70
     8
 71
     3
 72
     8
 73
     4
 74
     0
 42
0.0000001
 43
0.0000001
 40
0.0
 40
0.0
 40
0.0
 40
0.0
 40
20.8025659357770003
 40
20.8025659357770003
 40
20.8025659357770003
 40
20.8025659357770003
 10
33.2554893551513047
 20
4.2973958333333098
 30
0.0
 10
34.2510167141385153
 20
5.2968359103733107
 30
0.0
 10
34.2501215949085491
 20
8.0463803029426586
 30
0.0
 10
33.255489355151326
 20
9.2973958333333098
 30
0.0
  0
LWPOLYLINE
  5
50
102
{ACAD_REACTORS
330
4C
102
}
100
AcDbEntity
  8
0
  6
CONTINUOUS
 62
     7
100
AcDbPolyline
 90
        4
 70
     1
 10
34.337737
 20
7.095208
 10
34.087737
 20
7.095208
 10
34.087737
 20
6.515208
 10
34.337737
 20
6.515208
  0
LWPOLYLINE
  5
51
102
{ACAD_REACTORS
330
4C
102
}
100
AcDbEntity
  8
0
  6
CONTINUOUS
 62
     7
100
AcDbPolyline
 90
        4
 70
     1
 10
34.087737
 20
7.258333
 10
34.001799
 20
7.258333
 10
34.001799
 20
6.336458
 10
34.087737
 20
6.336458
  0
LWPOLYLINE
  5
53
102
{ACAD_REACTORS
330
52
102
}
100
AcDbEntity
  8
0
  6
CONTINUOUS
 62
     7
100
AcDbPolyline
 90
        4
 70
     1
 10
4.251799
 20
9.297396
 10
4.251799
 20
4.297396
 10
6.251799
 20
4.297396
 10
6.251799
 20
9.297396
  0
LINE
  5
54
102
{ACAD_REACTORS
330
52
102
}
100
AcDbEntity
  8
0
  6
CONTINUOUS
 62
     7
100
AcDbLine
 10
4.251799
 20
4.297396
 30
0.0
 11
4.251799
 21
9.297396
 31
0.0
  0
SPLINE
  5
55
102
{ACAD_REACTORS
330
52
102
}
100
AcDbEntity
  8
0
  6
CONTINUOUS
 62
     7
100
AcDbSpline
210
0.0
220
0.0
230
1.0
 70
     8
 71
     3
 72
     8
 73
     4
 74
     0
 42
0.0000001
 43
0.0000001
 40
0.0
 40
0.0
 40
0.0
 40
0.0
 40
20.8025659357770003
 40
20.8025659357770003
 40
20.8025659357770003
 40
20.8025659357770003
 10
4.2517992424242745
 20
9.2973958333333329
 30
0.0
 10
3.2562718834370656
 20
8.2979557562933337
 30
0.0
 10
3.2571670026670327
 20
5.548411363723984
 30
0.0
 10
4.2517992424242568
 20
4.2973958333333337
 30
0.0
  0
LWPOLYLINE
  5
56
102
{ACAD_REACTORS
330
52
102
}
100
AcDbEntity
  8
0
  6
CONTINUOUS
 62
     7
100
AcDbPolyline
 90
        4
 70
     1
 10
3.183617
 20
6.499583
 10
3.433617
 20
6.499583
 10
3.433617
 20
7.079583
 10
3.183617
 20
7.079583
  0
LWPOLYLINE
  5
57
102
{ACAD_REACTORS
330
52
102
}
100
AcDbEntity
  8
0
  6
CONTINUOUS
 62
     7
100
AcDbPolyline
 90
        4
 70
     1
 10
3.433617
 20
6.336458
 10
3.519555
 20
6.336458
 10
3.519555
 20
7.258333
 10
3.433617
 20
7.258333
  0
LWPOLYLINE
  5
59
102
{ACAD_REACTORS
330
58
102
}
100
AcDbEntity
  8
0
  6
CONTINUOUS
 62
     7
100
AcDbPolyline
 90
        4
 70
     1
 10
2.97339
 20
7.095208
 10
2.72339
 20
7.095208
 10
2.72339
 20
6.515208
 10
2.97339
 20
6.515208
  0
LWPOLYLINE
  5
5A
102
{ACAD_REACTORS
330
58
102
}
100
AcDbEntity
  8
0
  6
CONTINUOUS
 62
     7
100
AcDbPolyline
 90
        4
 70
     1
 10
2.72339
 20
7.258333
 10
2.637453
 20
7.258333
 10
2.637453
 20
6.336458
 10
2.72339
 20
6.336458
  0
LWPOLYLINE
  5
5C
102
{ACAD_REACTORS
330
5B
102
}
100
AcDbEntity
  8
0
  6
CONTINUOUS
 62
     7
100
AcDbPolyline
 90
        4
 70
     1
 10
34.665862
 20
6.499583
 10
34.915862
 20
6.499583
 10
34.915862
 20
7.079583
 10
34.665862
 20
7.079583
  0
LWPOLYLINE
  5
5D
102
{ACAD_REACTORS
330
5B
102
}
100
AcDbEntity
  8
0
  6
CONTINUOUS
 62
     7
100
AcDbPolyline
 90
        4
 70
     1
 10
34.915862
 20
6.336458
 10
35.001799
 20
6.336458
 10
35.001799
 20
7.258333
 10
34.915862
 20
7.258333
  0
LWPOLYLINE
  5
5F
102
{ACAD_REACTORS
330
5E
102
}
100
AcDbEntity
  8
0
  6
CONTINUOUS
 62
     7
100
AcDbPolyline
 90
        4
 70
     1
 10
35.837737
 20
7.095208
 10
35.587737
 20
7.095208
 10
35.587737
 20
6.515208
 10
35.837737
 20
6.515208
  0
LWPOLYLINE
  5
60
102
{ACAD_REACTORS
330
5E
102
}
100
AcDbEntity
  8
0
  6
CONTINUOUS
 62
     7
100
AcDbPolyline
 90
        4
 70
     1
 10
35.587737
 20
7.258333
 10
35.501799
 20
7.258333
 10
35.501799
 20
6.336458
 10
35.587737
 20
6.336458
  0
LWPOLYLINE
  5
62
102
{ACAD_REACTORS
330
61
102
}
100
AcDbEntity
  8
0
  6
CONTINUOUS
 62
     7
100
AcDbPolyline
 90
        4
 70
     1
 10
1.777012
 20
6.499583
 10
2.027012
 20
6.499583
 10
2.027012
 20
7.079583
 10
1.777012
 20
7.079583
  0
LWPOLYLINE
  5
63
102
{ACAD_REACTORS
330
61
102
}
100
AcDbEntity
  8
0
  6
CONTINUOUS
 62
     7
100
AcDbPolyline
 90
        4
 70
     1
 10
2.027012
 20
6.336458
 10
2.11295
 20
6.336458
 10
2.11295
 20
7.258333
 10
2.027012
 20
7.258333
  0
LWPOLYLINE
  5
64
102
{ACAD_REACTORS
330
68
102
}
100
AcDbEntity
  8
0
  6
CONTINUOUS
 62
     7
100
AcDbPolyline
 90
        4
 70
     1
 10
0.005208
 20
0.005208
 10
42.005208
 20
0.005208
 10
42.005208
 20
0.797396
 10
0.005208
 20
0.797396
  0
LWPOLYLINE
  5
65
102
{ACAD_REACTORS
330
68
102
}
100
AcDbEntity
  8
0
  6
CONTINUOUS
 62
     7
100
AcDbPolyline
 90
        4
 70
     1
 10
1.569413
 20
26.889916
 10
37.569413
 20
26.889916
 10
37.569413
 20
27.204876
 10
1.569413
 20
27.204876
  0
LWPOLYLINE
  5
67
102
{ACAD_REACTORS
330
68
102
}
100
AcDbEntity
  8
0
  6
CONTINUOUS
 62
     7
100
AcDbPolyline
 90
        4
 70
     1
 10
8.130208
 20
29.297396
 10
8.130208
 20
24.797396
 10
30.630208
 20
24.797396
 10
30.630208
 20
29.297396
  0
HATCH
  5
68
102
{ACAD_REACTORS
330
66
102
}
100
AcDbEntity
  8
0
 62
    31
100
AcDbHatch
 10
0.0
 20
0.0
 30
0.0
210
0.0
220
0.0
230
1.0
  2
SOLID
 70
     1
 71
     1
 91
        1
 92
        3
 72
     0
 73
     1
 93
        4
 10
8.1302083333333393
 20
29.2973958333333009
 10
8.1302083333333393
 20
24.7973958333333009
 10
30.6302083333333393
 20
24.7973958333333009
 10
30.6302083333333393
 20
29.2973958333333009
 97
       25
330
48
330
49
330
4A
330
4B
330
4D
330
4E
330
4F
330
50
330
51
330
53
330
54
330
55
330
56
330
57
330
59
330
5A
330
5C
330
5D
330
5F
330
60
330
62
330
63
330
64
330
65
330
67
 75
     0
 76
     1
 98
        0
  0
LWPOLYLINE
  5
69
102
{ACAD_REACTORS
330
66
102
}
100
AcDbEntity
  8
0
  6
CONTINUOUS
 62
     7
100
AcDbPolyline
 90
        4
 70
     1
 10
30.630208
 20
29.297396
 10
30.630208
 20
24.797396
 10
33.630208
 20
24.797396
 10
33.630208
 20
29.297396
  0
LWPOLYLINE
  5
6A
102
{ACAD_REACTORS
330
66
102
}
100
AcDbEntity
  8
0
  6
CONTINUOUS
 62
     7
100
AcDbPolyline
 90
        4
 70
     1
 10
5.130208
 20
29.297396
 10
5.130208
 20
24.797396
 10
8.130208
 20
24.797396
 10
8.130208
 20
29.297396
  0
LWPOLYLINE
  5
6C
102
{ACAD_REACTORS
330
6B
102
}
100
AcDbEntity
  8
0
  6
CONTINUOUS
 62
     7
100
AcDbPolyline
 90
        4
 70
     1
 10
33.883898
 20
24.547396
 10
33.883898
 20
29.547396
 10
31.883898
 20
29.547396
 10
31.883898
 20
24.547396
  0
LINE
  5
6D
102
{ACAD_REACTORS
330
6B
102
}
100
AcDbEntity
  8
0
  6
CONTINUOUS
 62
     7
100
AcDbLine
 10
33.883898
 20
29.547396
 30
0.0
 11
33.883898
 21
24.547396
 31
0.0
  0
SPLINE
  5
6E
102
{ACAD_REACTORS
330
6B
102
}
100
AcDbEntity
  8
0
  6
CONTINUOUS
 62
     7
100
AcDbSpline
210
0.0
220
0.0
230
1.0
 70
     8
 71
     3
 72
     8
 73
     4
 74
     0
 42
0.0000001
 43
0.0000001
 40
0.0
 40
0.0
 40
0.0
 40
0.0
 40
20.8025659357770003
 40
20.8025659357770003
 40
20.8025659357770003
 40
20.8025659357770003
 10
33.8838984460603783
 20
24.5473958333333258
 30
0.0
 10
34.8794258050475889
 20
25.5468359103733249
 30
0.0
 10
34.8785306858176227
 20
28.2963803029426764
 30
0.0
 10
33.8838984460603996
 20
29.5473958333333258
 30
0.0
  0
LWPOLYLINE
  5
6F
102
{ACAD_REACTORS
330
6B
102
}
100
AcDbEntity
  8
0
  6
CONTINUOUS
 62
     7
100
AcDbPolyline
 90
        4
 70
     1
 10
34.966146
 20
27.345208
 10
34.716146
 20
27.345208
 10
34.716146
 20
26.765208
 10
34.966146
 20
26.765208
  0
LWPOLYLINE
  5
70
102
{ACAD_REACTORS
330
6B
102
}
100
AcDbEntity
  8
0
  6
CONTINUOUS
 62
     7
100
AcDbPolyline
 90
        4
 70
     1
 10
34.716146
 20
27.508333
 10
34.630208
 20
27.508333
 10
34.630208
 20
26.586458
 10
34.716146
 20
26.586458
  0
LWPOLYLINE
  5
72
102
{ACAD_REACTORS
330
71
102
}
100
AcDbEntity
  8
0
  6
CONTINUOUS
 62
     7
100
AcDbPolyline
 90
        4
 70
     1
 10
4.880208
 20
29.547396
 10
4.880208
 20
24.547396
 10
6.880208
 20
24.547396
 10
6.880208
 20
29.547396
  0
LINE
  5
73
102
{ACAD_REACTORS
330
71
102
}
100
AcDbEntity
  8
0
  6
CONTINUOUS
 62
     7
100
AcDbLine
 10
4.880208
 20
24.547396
 30
0.0
 11
4.880208
 21
29.547396
 31
0.0
  0
SPLINE
  5
74
102
{ACAD_REACTORS
330
71
102
}
100
AcDbEntity
  8
0
  6
CONTINUOUS
 62
     7
100
AcDbSpline
210
0.0
220
0.0
230
1.0
 70
     8
 71
     3
 72
     8
 73
     4
 74
     0
 42
0.0000001
 43
0.0000001
 40
0.0
 40
0.0
 40
0.0
 40
0.0
 40
20.8025659357770003
 40
20.8025659357770003
 40
20.8025659357770003
 40
20.8025659357770003
 10
4.8802083333333375
 20
29.5473958333333577
 30
0.0
 10
3.8846809743461286
 20
28.547955756293355
 30
0.0
 10
3.8855760935760957
 20
25.7984113637240071
 30
0.0
 10
4.8802083333333197
 20
24.5473958333333577
 30
0.0
  0
LWPOLYLINE
  5
75
102
{ACAD_REACTORS
330
71
102
}
100
AcDbEntity
  8
0
  6
CONTINUOUS
 62
     7
100
AcDbPolyline
 90
        4
 70
     1
 10
3.812027
 20
26.749583
 10
4.062027
 20
26.749583
 10
4.062027
 20
27.329583
 10
3.812027
 20
27.329583
  0
LWPOLYLINE
  5
76
102
{ACAD_REACTORS
330
71
102
}
100
AcDbEntity
  8
0
  6
CONTINUOUS
 62
     7
100
AcDbPolyline
 90
        4
 70
     1
 10
4.062027
 20
26.586458
 10
4.147964
 20
26.586458
 10
4.147964
 20
27.508333
 10
4.062027
 20
27.508333
  0
LWPOLYLINE
  5
78
102
{ACAD_REACTORS
330
77
102
}
100
AcDbEntity
  8
0
  6
CONTINUOUS
 62
     7
100
AcDbPolyline
 90
        4
 70
     1
 10
3.601799
 20
27.345208
 10
3.351799
 20
27.345208
 10
3.351799
 20
26.765208
 10
3.601799
 20
26.765208
  0
LWPOLYLINE
  5
79
102
{ACAD_REACTORS
330
77
102
}
100
AcDbEntity
  8
0
  6
CONTINUOUS
 62
     7
100
AcDbPolyline
 90
        4
 70
     1
 10
3.351799
 20
27.508333
 10
3.265862
 20
27.508333
 10
3.265862
 20
26.586458
 10
3.351799
 20
26.586458
  0
LWPOLYLINE
  5
7B
102
{ACAD_REACTORS
330
7A
102
}
100
AcDbEntity
  8
0
  6
CONTINUOUS
 62
     7
100
AcDbPolyline
 90
        4
 70
     1
 10
35.294271
 20
26.749583
 10
35.544271
 20
26.749583
 10
35.544271
 20
27.329583
 10
35.294271
 20
27.329583
  0
LWPOLYLINE
  5
7C
102
{ACAD_REACTORS
330
7A
102
}
100
AcDbEntity
  8
0
  6
CONTINUOUS
 62
     7
100
AcDbPolyline
 90
        4
 70
     1
 10
35.544271
 20
26.586458
 10
35.630208
 20
26.586458
 10
35.630208
 20
27.508333
 10
35.544271
 20
27.508333
  0
LWPOLYLINE
  5
7E
102
{ACAD_REACTORS
330
7D
102
}
100
AcDbEntity
  8
0
  6
CONTINUOUS
 62
     7
100
AcDbPolyline
 90
        4
 70
     1
 10
36.466146
 20
27.345208
 10
36.216146
 20
27.345208
 10
36.216146
 20
26.765208
 10
36.466146
 20
26.765208
  0
LWPOLYLINE
  5
7F
102
{ACAD_REACTORS
330
7D
102
}
100
AcDbEntity
  8
0
  6
CONTINUOUS
 62
     7
100
AcDbPolyline
 90
        4
 70
     1
 10
36.216146
 20
27.508333
 10
36.130208
 20
27.508333
 10
36.130208
 20
26.586458
 10
36.216146
 20
26.586458
  0
LWPOLYLINE
  5
81
102
{ACAD_REACTORS
330
80
102
}
100
AcDbEntity
  8
0
  6
CONTINUOUS
 62
     7
100
AcDbPolyline
 90
        4
 70
     1
 10
2.405421
 20
26.749583
 10
2.655421
 20
26.749583
 10
2.655421
 20
27.329583
 10
2.405421
 20
27.329583
  0
LWPOLYLINE
  5
82
102
{ACAD_REACTORS
330
80
102
}
100
AcDbEntity
  8
0
  6
CONTINUOUS
 62
     7
100
AcDbPolyline
 90
        4
 70
     1
 10
2.655421
 20
26.586458
 10
2.741359
 20
26.586458
 10
2.741359
 20
27.508333
 10
2.655421
 20
27.508333
  0
LWPOLYLINE
  5
84
102
{ACAD_REACTORS
330
83
102
}
100
AcDbEntity
  8
0
  6
CONTINUOUS
 62
     7
100
AcDbPolyline
 90
        4
 70
     1
 10
2.755208
 20
24.922396
 10
3.255208
 20
24.922396
 10
3.255208
 20
29.172396
 10
2.755208
 20
29.172396
  0
LWPOLYLINE
  5
85
102
{ACAD_REACTORS
330
83
102
}
100
AcDbEntity
  8
0
  6
CONTINUOUS
 62
     7
100
AcDbPolyline
 90
        4
 70
     1
 10
35.630208
 20
24.922396
 10
36.130208
 20
24.922396
 10
36.130208
 20
29.172396
 10
35.630208
 20
29.172396
  0
LWPOLYLINE
  5
87
102
{ACAD_REACTORS
330
86
102
}
100
AcDbEntity
  8
0
  6
CONTINUOUS
 62
     7
100
AcDbPolyline
 90
        4
 70
     1
 10
2.755208
 20
19.797396
 10
3.255208
 20
19.797396
 10
3.255208
 20
24.047396
 10
2.755208
 20
24.047396
  0
LWPOLYLINE
  5
88
102
{ACAD_REACTORS
330
86
102
}
100
AcDbEntity
  8
0
  6
CONTINUOUS
 62
     7
100
AcDbPolyline
 90
        4
 70
     1
 10
35.630208
 20
19.797396
 10
36.130208
 20
19.797396
 10
36.130208
 20
24.047396
 10
35.630208
 20
24.047396
  0
LWPOLYLINE
  5
89
102
{ACAD_REACTORS
330
9B
102
}
100
AcDbEntity
  8
0
  6
CONTINUOUS
 62
     7
100
AcDbPolyline
 90
        3
 70
     1
 10
37.626799
 20
1.547396
 10
35.505208
 20
5.797396
 10
35.501799
 20
1.547396
  0
LWPOLYLINE
  5
8A
100
AcDbEntity
  8
0
  6
CONTINUOUS
 62
     7
100
AcDbPolyline
 90
        3
 70
     0
 10
35.501799
 20
5.797396
 10
35.501799
 20
1.547396
 10
37.626799
 20
1.547396
  0
LWPOLYLINE
  5
8B
102
{ACAD_REACTORS
330
9B
102
}
100
AcDbEntity
  8
0
  6
CONTINUOUS
 62
     7
100
AcDbPolyline
 90
        3
 70
     1
 10
0.005208
 20
1.547396
 10
2.126799
 20
5.797396
 10
2.130208
 20
1.547396
  0
LWPOLYLINE
  5
8C
102
{ACAD_REACTORS
330
9B
102
}
100
AcDbEntity
  8
0
  6
CONTINUOUS
 62
     7
100
AcDbPolyline
 90
        6
 70
     1
 10
8.380208
 20
13.297396
 10
10.380208
 20
13.297396
 10
10.380208
 20
23.047396
 10
6.130208
 20
23.047396
 10
6.130208
 20
20.797396
 10
8.380208
 20
20.797396
  0
LWPOLYLINE
  5
8E
102
{ACAD_REACTORS
330
9B
102
}
100
AcDbEntity
  8
0
  6
CONTINUOUS
 62
     7
100
AcDbPolyline
 90
        4
 70
     1
 10
2.897728
 20
19.047396
 10
2.897728
 20
11.422396
 10
3.212689
 20
11.422396
 10
3.212689
 20
19.047396
  0
LWPOLYLINE
  5
8F
102
{ACAD_REACTORS
330
9B
102
}
100
AcDbEntity
  8
0
  6
CONTINUOUS
 62
     7
100
AcDbPolyline
 90
        4
 70
     1
 10
3.353021
 20
17.575805
 10
3.353021
 20
17.825805
 10
2.773021
 20
17.825805
 10
2.773021
 20
17.575805
  0
LWPOLYLINE
  5
90
102
{ACAD_REACTORS
330
9B
102
}
100
AcDbEntity
  8
0
  6
CONTINUOUS
 62
     7
100
AcDbPolyline
 90
        4
 70
     1
 10
3.516146
 20
17.825805
 10
3.516146
 20
17.911742
 10
2.594271
 20
17.911742
 10
2.594271
 20
17.825805
  0
LWPOLYLINE
  5
91
102
{ACAD_REACTORS
330
9B
102
}
100
AcDbEntity
  8
0
  6
CONTINUOUS
 62
     7
100
AcDbPolyline
 90
        4
 70
     1
 10
2.757396
 20
18.772183
 10
2.757396
 20
18.522183
 10
3.337396
 20
18.522183
 10
3.337396
 20
18.772183
  0
LWPOLYLINE
  5
92
102
{ACAD_REACTORS
330
9B
102
}
100
AcDbEntity
  8
0
  6
CONTINUOUS
 62
     7
100
AcDbPolyline
 90
        4
 70
     1
 10
2.594271
 20
18.522183
 10
2.594271
 20
18.436245
 10
3.516146
 20
18.436245
 10
3.516146
 20
18.522183
  0
LWPOLYLINE
  5
93
102
{ACAD_REACTORS
330
9B
102
}
100
AcDbEntity
  8
0
  6
CONTINUOUS
 62
     7
100
AcDbPolyline
 90
        4
 70
     1
 10
0.930208
 20
18.422396
 10
0.930208
 20
17.922396
 10
5.180208
 20
17.922396
 10
5.180208
 20
18.422396
  0
LWPOLYLINE
  5
94
102
{ACAD_REACTORS
330
9B
102
}
100
AcDbEntity
  8
0
  6
CONTINUOUS
 62
     7
100
AcDbPolyline
 90
        4
 70
     1
 10
3.353021
 20
11.672396
 10
3.353021
 20
11.922396
 10
2.773021
 20
11.922396
 10
2.773021
 20
11.672396
  0
LWPOLYLINE
  5
95
102
{ACAD_REACTORS
330
9B
102
}
100
AcDbEntity
  8
0
  6
CONTINUOUS
 62
     7
100
AcDbPolyline
 90
        4
 70
     1
 10
3.516146
 20
11.922396
 10
3.516146
 20
12.008333
 10
2.594271
 20
12.008333
 10
2.594271
 20
11.922396
  0
LWPOLYLINE
  5
96
102
{ACAD_REACTORS
330
9B
102
}
100
AcDbEntity
  8
0
  6
CONTINUOUS
 62
     7
100
AcDbPolyline
 90
        4
 70
     1
 10
2.757396
 20
12.868774
 10
2.757396
 20
12.618774
 10
3.337396
 20
12.618774
 10
3.337396
 20
12.868774
  0
LWPOLYLINE
  5
97
102
{ACAD_REACTORS
330
9B
102
}
100
AcDbEntity
  8
0
  6
CONTINUOUS
 62
     7
100
AcDbPolyline
 90
        4
 70
     1
 10
2.594271
 20
12.618774
 10
2.594271
 20
12.532836
 10
3.516146
 20
12.532836
 10
3.516146
 20
12.618774
  0
LWPOLYLINE
  5
98
102
{ACAD_REACTORS
330
9B
102
}
100
AcDbEntity
  8
0
  6
CONTINUOUS
 62
     7
100
AcDbPolyline
 90
        4
 70
     1
 10
0.930208
 20
12.518987
 10
0.930208
 20
12.018987
 10
5.180208
 20
12.018987
 10
5.180208
 20
12.518987
  0
LWPOLYLINE
  5
99
102
{ACAD_REACTORS
330
9B
102
}
100
AcDbEntity
  8
0
  6
CONTINUOUS
 62
     7
100
AcDbPolyline
 90
        4
 70
     1
 10
0.055208
 20
17.407396
 10
0.055208
 20
17.047396
 10
6.055208
 20
17.047396
 10
6.055208
 20
17.407396
  0
LWPOLYLINE
  5
9A
102
{ACAD_REACTORS
330
9B
102
}
100
AcDbEntity
  8
0
  6
CONTINUOUS
 62
     7
100
AcDbPolyline
 90
        4
 70
     1
 10
0.430208
 20
13.422396
 10
5.680208
 20
13.422396
 10
5.680208
 20
17.047396
 10
0.430208
 20
17.047396
  0
HATCH
  5
9B
102
{ACAD_REACTORS
330
8D
102
}
100
AcDbEntity
  8
0
 62
    31
100
AcDbHatch
 10
0.0
 20
0.0
 30
0.0
210
0.0
220
0.0
230
1.0
  2
SOLID
 70
     1
 71
     1
 91
        1
 92
        3
 72
     0
 73
     1
 93
        4
 10
0.4302083333333311
 20
13.4223958333333293
 10
5.6802083333333311
 20
13.4223958333333293
 10
5.6802083333333311
 20
17.0473958333333293
 10
0.4302083333333311
 20
17.0473958333333293
 97
       40
330
69
330
6A
330
6C
330
6D
330
6E
330
6F
330
70
330
72
330
73
330
74
330
75
330
76
330
78
330
79
330
7B
330
7C
330
7E
330
7F
330
81
330
82
330
84
330
85
330
87
330
88
330
89
330
8B
330
8C
330
8E
330
8F
330
90
330
91
330
92
330
93
330
94
330
95
330
96
330
97
330
98
330
99
330
9A
 75
     0
 76
     1
 98
        0
  0
LWPOLYLINE
  5
9C
102
{ACAD_REACTORS
330
8D
102
}
100
AcDbEntity
  8
0
  6
CONTINUOUS
 62
     7
100
AcDbPolyline
 90
        4
 70
     1
 10
0.055208
 20
13.422396
 10
0.055208
 20
13.047396
 10
6.055208
 20
13.047396
 10
6.055208
 20
13.422396
  0
LWPOLYLINE
  5
9D
100
AcDbEntity
  8
0
  6
CONTINUOUS
 62
     7
100
AcDbPolyline
 90
        4
 70
     1
 10
37.067708
 20
11.359896
 10
41.067708
 20
11.359896
 10
41.067708
 20
16.109896
 10
37.067708
 20
16.109896
  0
LWPOLYLINE
  5
9F
102
{ACAD_REACTORS
330
9E
102
}
100
AcDbEntity
  8
0
  6
CONTINUOUS
 62
     7
100
AcDbPolyline
 90
        4
 70
     1
 10
36.567708
 20
16.859896
 10
38.817708
 20
16.859896
 10
38.817708
 20
19.109896
 10
36.567708
 20
19.109896
  0
LWPOLYLINE
  5
A0
102
{ACAD_REACTORS
330
9E
102
}
100
AcDbEntity
  8
0
  6
CONTINUOUS
 62
     7
100
AcDbPolyline
 90
        4
 70
     1
 10
39.317708
 20
16.859896
 10
41.567708
 20
16.859896
 10
41.567708
 20
19.109896
 10
39.317708
 20
19.109896
  0
LWPOLYLINE
  5
A1
100
AcDbEntity
  8
0
  6
CONTINUOUS
 62
     7
100
AcDbPolyline
 90
        4
 70
     1
 10
39.255208
 20
21.087396
 10
41.105208
 20
21.087396
 10
41.105208
 20
22.757396
 10
39.255208
 20
22.757396
  0
LWPOLYLINE
  5
A2
100
AcDbEntity
  8
0
  6
CONTINUOUS
 62
     7
100
AcDbPolyline
 90
        4
 70
     1
 10
39.255208
 20
26.212396
 10
41.105208
 20
26.212396
 10
41.105208
 20
27.882396
 10
39.255208
 20
27.882396
  0
LWPOLYLINE
  5
A3
100
AcDbEntity
  8
0
  6
CONTINUOUS
 62
     7
100
AcDbPolyline
 90
        4
 70
     1
 10
32.630208
 20
1.547396
 10
32.630208
 20
0.797396
 10
41.255208
 20
0.797396
 10
41.255208
 20
1.547396
  0
LWPOLYLINE
  5
A4
100
AcDbEntity
  8
0
  6
CONTINUOUS
 62
     7
100
AcDbPolyline
 90
        4
 70
     1
 10
0.005208
 20
1.547396
 10
0.005208
 20
0.797396
 10
5.005208
 20
0.797396
 10
5.005208
 20
1.547396
  0
ENDSEC
  0
SECTION
  2
OBJECTS
  0
DICTIONARY
  5
C
100
AcDbDictionary
  3
ACAD_GROUP
350
D
  3
ACAD_MLINESTYLE
350
1B
  0
DICTIONARY
  5
D
102
{ACAD_REACTORS
330
C
102
}
100
AcDbDictionary
  3
VISIOGROUP_0
350
38
  3
VISIOGROUP_1
350
3B
  3
VISIOGROUP_2
350
3E
  3
VISIOGROUP_3
350
41
  3
VISIOGROUP_4
350
45
  3
VISIOGROUP_5
350
4C
  3
VISIOGROUP_6
350
52
  3
VISIOGROUP_7
350
58
  3
VISIOGROUP_8
350
5B
  3
VISIOGROUP_9
350
5E
  3
VISIOGROUP_10
350
61
  3
VISIOGROUP_11
350
66
  3
VISIOGROUP_12
350
6B
  3
VISIOGROUP_13
350
71
  3
VISIOGROUP_14
350
77
  3
VISIOGROUP_15
350
7A
  3
VISIOGROUP_16
350
7D
  3
VISIOGROUP_17
350
80
  3
VISIOGROUP_18
350
83
  3
VISIOGROUP_19
350
86
  3
VISIOGROUP_20
350
8D
  3
VISIOGROUP_21
350
9E
  0
DICTIONARY
  5
1B
102
{ACAD_REACTORS
330
C
102
}
100
AcDbDictionary
  3
STANDARD
350
1C
  0
MLINESTYLE
  5
1C
102
{ACAD_REACTORS
330
1B
102
}
100
AcDbMlineStyle
  2
STANDARD
 70
     0
  3

 62
   256
 51
90.0
 52
90.0
 71
     2
 49
0.5
 62
   256
  6
BYLAYER
 49
-0.5
 62
   256
  6
BYLAYER
  0
DICTIONARY
  5
29
102
{ACAD_REACTORS
330
C
102
}
100
AcDbDictionary
  3
MODEL
350
2A
  3
LAYOUT1
350
2B
  0
DICTIONARY
  5
2C
102
{ACAD_REACTORS
330
C
102
}
100
AcDbDictionary
  0
GROUP
  5
38
102
{ACAD_REACTORS
330
D
102
}
100
AcDbGroup
300
Group created by Visio.
 70
     0
 71
     1
340
39
340
3A
  0
GROUP
  5
3B
102
{ACAD_REACTORS
330
D
102
}
100
AcDbGroup
300
Group created by Visio.
 70
     0
 71
     1
340
3C
340
3D
  0
GROUP
  5
3E
102
{ACAD_REACTORS
330
D
102
}
100
AcDbGroup
300
Group created by Visio.
 70
     0
 71
     1
340
3F
340
40
  0
GROUP
  5
41
102
{ACAD_REACTORS
330
D
102
}
100
AcDbGroup
300
Group created by Visio.
 70
     0
 71
     1
340
42
340
43
  0
GROUP
  5
45
102
{ACAD_REACTORS
330
D
102
}
100
AcDbGroup
300
Group created by Visio.
 70
     0
 71
     1
340
46
340
47
340
48
340
49
  0
GROUP
  5
4C
102
{ACAD_REACTORS
330
D
102
}
100
AcDbGroup
300
Group created by Visio.
 70
     0
 71
     1
340
4D
340
4E
340
4F
340
50
340
51
  0
GROUP
  5
52
102
{ACAD_REACTORS
330
D
102
}
100
AcDbGroup
300
Group created by Visio.
 70
     0
 71
     1
340
53
340
54
340
55
340
56
340
57
  0
GROUP
  5
58
102
{ACAD_REACTORS
330
D
102
}
100
AcDbGroup
300
Group created by Visio.
 70
     0
 71
     1
340
59
340
5A
  0
GROUP
  5
5B
102
{ACAD_REACTORS
330
D
102
}
100
AcDbGroup
300
Group created by Visio.
 70
     0
 71
     1
340
5C
340
5D
  0
GROUP
  5
5E
102
{ACAD_REACTORS
330
D
102
}
100
AcDbGroup
300
Group created by Visio.
 70
     0
 71
     1
340
5F
340
60
  0
GROUP
  5
61
102
{ACAD_REACTORS
330
D
102
}
100
AcDbGroup
300
Group created by Visio.
 70
     0
 71
     1
340
62
340
63
  0
GROUP
  5
66
102
{ACAD_REACTORS
330
D
102
}
100
AcDbGroup
300
Group created by Visio.
 70
     0
 71
     1
340
67
340
68
340
69
340
6A
  0
GROUP
  5
6B
102
{ACAD_REACTORS
330
D
102
}
100
AcDbGroup
300
Group created by Visio.
 70
     0
 71
     1
340
6C
340
6D
340
6E
340
6F
340
70
  0
GROUP
  5
71
102
{ACAD_REACTORS
330
D
102
}
100
AcDbGroup
300
Group created by Visio.
 70
     0
 71
     1
340
72
340
73
340
74
340
75
340
76
  0
GROUP
  5
77
102
{ACAD_REACTORS
330
D
102
}
100
AcDbGroup
300
Group created by Visio.
 70
     0
 71
     1
340
78
340
79
  0
GROUP
  5
7A
102
{ACAD_REACTORS
330
D
102
}
100
AcDbGroup
300
Group created by Visio.
 70
     0
 71
     1
340
7B
340
7C
  0
GROUP
  5
7D
102
{ACAD_REACTORS
330
D
102
}
100
AcDbGroup
300
Group created by Visio.
 70
     0
 71
     1
340
7E
340
7F
  0
GROUP
  5
80
102
{ACAD_REACTORS
330
D
102
}
100
AcDbGroup
300
Group created by Visio.
 70
     0
 71
     1
340
81
340
82
  0
GROUP
  5
83
102
{ACAD_REACTORS
330
D
102
}
100
AcDbGroup
300
Group created by Visio.
 70
     0
 71
     1
340
84
340
85
  0
GROUP
  5
86
102
{ACAD_REACTORS
330
D
102
}
100
AcDbGroup
300
Group created by Visio.
 70
     0
 71
     1
340
87
340
88
  0
GROUP
  5
8D
102
{ACAD_REACTORS
330
D
102
}
100
AcDbGroup
300
Group created by Visio.
 70
     0
 71
     1
340
8E
340
8F
340
90
340
91
340
92
340
93
340
94
340
95
340
96
340
97
340
98
340
99
340
9A
340
9B
340
9C
  0
GROUP
  5
9E
102
{ACAD_REACTORS
330
D
102
}
100
AcDbGroup
300
Group created by Visio.
 70
     0
 71
     1
340
9F
340
A0
  0
ENDSEC
  0
EOF
